<svg width="162" height="65" viewBox="0 0 162 65" fill="none" xmlns="http://www.w3.org/2000/svg">
<path d="M16.9919 0V49.786H43.5508V64.451H0.428368V0H16.9919ZM96.4781 46.7036V48.0113L96.476 48.3787C96.3533 58.9704 90.8956 64.3271 80.1028 64.4488L79.7241 64.451H58.5913L51.1662 58.8465V49.786H78.8674L79.0023 49.7815C79.567 49.7419 79.8695 49.4451 79.9099 48.891L79.9145 48.7586V46.7036H96.4781ZM120.752 0L132.461 18.2144L144.17 0H158.734L160.257 3.17584L141.504 31.2914L161.495 61.2751L159.877 64.451H145.407L132.461 44.4618L119.515 64.451H105.045L103.427 61.2751L123.418 31.2914L104.665 3.17584L106.188 0H120.752ZM58.2105 25.2199L95.9273 25.2214C95.5708 26.1748 95.0414 27.0263 94.3388 27.776L94.0983 28.0222L90.7665 31.2914L94.0983 34.5607L94.3097 34.7758C95.0271 35.5334 95.5665 36.3958 95.9278 37.3629L58.2105 37.3629V25.2199ZM79.7241 0L80.0985 0.00207545C90.8927 0.122436 96.3519 5.47778 96.4759 16.0681L96.4781 16.4397V17.7474H79.9145V15.6924L79.9099 15.56C79.8695 15.0059 79.567 14.7091 79.0023 14.6695L78.8674 14.6649H52.1182V5.60443L59.5432 0H79.7241Z" fill="black"/>
<path d="M16.9919 0V49.786H43.5508V64.451H0.428368V0H16.9919ZM96.4781 46.7036V48.0113L96.476 48.3787C96.3533 58.9704 90.8956 64.3271 80.1028 64.4488L79.7241 64.451H58.5913L51.1662 58.8465V49.786H78.8674L79.0023 49.7815C79.567 49.7419 79.8695 49.4451 79.9099 48.891L79.9145 48.7586V46.7036H96.4781ZM120.752 0L132.461 18.2144L144.17 0H158.734L160.257 3.17584L141.504 31.2914L161.495 61.2751L159.877 64.451H145.407L132.461 44.4618L119.515 64.451H105.045L103.427 61.2751L123.418 31.2914L104.665 3.17584L106.188 0H120.752ZM58.2105 25.2199L95.9273 25.2214C95.5708 26.1748 95.0414 27.0263 94.3388 27.776L94.0983 28.0222L90.7665 31.2914L94.0983 34.5607L94.3097 34.7758C95.0271 35.5334 95.5665 36.3958 95.9278 37.3629L58.2105 37.3629V25.2199ZM79.7241 0L80.0985 0.00207545C90.8927 0.122436 96.3519 5.47778 96.4759 16.0681L96.4781 16.4397V17.7474H79.9145V15.6924L79.9099 15.56C79.8695 15.0059 79.567 14.7091 79.0023 14.6695L78.8674 14.6649H52.1182V5.60443L59.5432 0H79.7241Z" fill="url(#paint0_linear_185_384)"/>
<path d="M96.1449 25.2199H58.0677V37.3629H96.1449V25.2199Z" fill="url(#paint1_linear_185_384)"/>
<defs>
<linearGradient id="paint0_linear_185_384" x1="16107.1" y1="2686.63" x2="1992.82" y2="8552.49" gradientUnits="userSpaceOnUse">
<stop stop-color="#40D389"/>
<stop offset="1" stop-color="#48EB99"/>
</linearGradient>
<linearGradient id="paint1_linear_185_384" x1="3865.79" y1="568.237" x2="396.207" y2="1717.41" gradientUnits="userSpaceOnUse">
<stop stop-color="#40D389"/>
<stop offset="1" stop-color="#48EB99"/>
</linearGradient>
</defs>
</svg>
